# xmcd CD database file
#
# Track frame offsets:
#	150
#	41286
#	53253
#	85504
#	111334
#	147632
#	172704
#	193435
#	221816
#	238766
#	259524
#
# Disc length: 3728 seconds
#
# Revision: 0
# Processed by: cddbd v1.5.1PL2 Copyright (c) Steve Scherf et al.
# Submitted via: CDex 1.51
#
DISCID=940e8e0b
DTITLE=Deuter - Henon
DYEAR=1979
DGENRE=New Age
TTITLE0=Chicken Itza
TTITLE1=Nada
TTITLE2=Sha
TTITLE3=Ebony
TTITLE4=Basho
TTITLE5=Ari
TTITLE6=Gentle Darkness
TTITLE7=Terra Linda
TTITLE8=Indien Girl
TTITLE9=Fjaril
TTITLE10=Rainmoon
EXTD=YEAR: 1979
EXTT0=
EXTT1=
EXTT2=
EXTT3=
EXTT4=
EXTT5=
EXTT6=
EXTT7=
EXTT8=
EXTT9=
EXTT10=
PLAYORDER=
